<svg width="26" height="28" viewBox="0 0 26 28" fill="none" xmlns="http://www.w3.org/2000/svg">
<g id="MS Logo">
<g id="Group 229">
<g id="Group 22">
<path id="Fill 1" fill-rule="evenodd" clip-rule="evenodd" d="M3.26731 0.416016C3.9529 0.479572 4.64927 0.701367 5.24234 1.18085C5.56557 1.44215 5.70497 1.91786 5.54744 2.23248C5.47244 2.38228 5.33492 2.52515 5.18996 2.61036C4.92701 2.76496 4.77346 2.97186 4.82142 3.2672C4.88077 3.63265 4.96226 3.99851 5.07733 4.35006C5.25484 4.89241 5.37416 5.44078 5.38075 6.01162C5.38861 6.69138 5.32346 7.36425 5.17777 8.02874C5.16449 8.08938 5.14633 8.14892 5.1315 8.20925C5.06164 8.49323 4.91139 8.64498 4.59002 8.67385C4.09611 8.71822 3.60399 8.8071 3.11867 8.91204C2.86609 8.96664 2.62597 9.08765 2.38681 9.19352C1.83465 9.438 1.45564 9.38175 1.12435 8.8756C0.859272 8.47065 0.684717 8.00403 0.489772 7.55619C0.0948684 6.64893 0.0816179 5.6763 0.0135809 4.71142C-0.035988 4.00891 0.0491785 3.32509 0.284802 2.67079C0.76779 1.32959 1.57576 0.559429 3.26731 0.416016" fill="white"/>
<g id="Group 5">
<mask id="mask0_331_4297" style="mask-type:luminance" maskUnits="userSpaceOnUse" x="20" y="0" width="6" height="10">
<path id="Clip 4" fill-rule="evenodd" clip-rule="evenodd" d="M20.1309 0.423828L25.7863 0.423828L25.7863 9.35522L20.1309 9.35522L20.1309 0.423828Z" fill="white"/>
</mask>
<g mask="url(#mask0_331_4297)">
<path id="Fill 3" fill-rule="evenodd" clip-rule="evenodd" d="M25.7834 4.88384C25.7477 5.23617 25.6971 5.90482 25.6048 6.56777C25.5635 6.86482 25.4527 7.15551 25.3481 7.4399C25.2125 7.80886 25.0732 8.17968 24.8936 8.52836C24.7795 8.75002 24.6065 8.94972 24.4291 9.12911C24.1833 9.37774 23.8587 9.41987 23.5615 9.26269C22.7854 8.85227 21.9354 8.76903 21.0899 8.6628C20.8823 8.63672 20.7609 8.55231 20.6965 8.35786C20.4967 7.75478 20.4358 7.13156 20.4 6.50223C20.3692 5.95985 20.4181 5.42585 20.5335 4.8976C20.573 4.7165 20.6514 4.54415 20.6978 4.36414C20.7887 4.01165 20.8874 3.65967 20.9493 3.30172C21.0035 2.98858 20.8594 2.75862 20.566 2.61571C20.3118 2.49187 20.0787 2.12113 20.1411 1.91175C20.2252 1.62912 20.3047 1.32665 20.5738 1.15227C20.8344 0.983354 21.0987 0.805854 21.3859 0.69499C21.8441 0.518143 22.3216 0.364663 22.8255 0.446395C23.8354 0.610169 24.6704 1.02467 25.1859 1.97722C25.6282 2.79468 25.8122 3.6513 25.7834 4.88384" fill="white"/>
</g>
</g>
<path id="Fill 6" fill-rule="evenodd" clip-rule="evenodd" d="M25.4074 12.6518C25.3897 12.8005 25.382 12.9111 25.3626 13.0197C25.3209 13.2527 25.1861 13.4103 24.9548 13.4671C24.7097 13.5272 24.4963 13.4704 24.3102 13.2864C24.0417 13.021 23.9548 12.652 23.7535 12.3516C23.5095 11.9875 23.274 11.6017 22.9601 11.3041C22.4999 10.8677 21.9086 10.8327 21.2908 10.9044C20.3654 11.0119 19.4326 11.0535 18.5066 11.1565C17.8513 11.2294 17.2065 11.1815 16.5715 11.0485C15.6312 10.8517 14.6812 10.6568 13.9847 9.89904C13.6112 9.49267 13.3678 9.03943 13.2912 8.47612C13.2208 7.95919 13.3532 7.48929 13.614 7.09501C13.9714 6.55458 14.3677 5.99154 15.1162 5.93561C15.277 5.92358 15.4491 5.94867 15.6044 5.99529C16.4886 6.2608 16.9507 6.89131 17.1017 7.77552C17.1342 7.96602 17.1569 8.16083 17.1571 8.35367C17.1573 8.6466 17.3319 8.78746 17.578 8.84271C18.4413 9.03655 19.3072 9.21936 20.1735 9.3999C20.7013 9.50995 21.2319 9.60652 21.7607 9.71217C22.1389 9.78772 22.5186 9.85805 22.8931 9.9491C23.3513 10.0605 23.653 10.385 23.8426 10.7864C24.0392 11.2024 24.1676 11.6504 24.3314 12.0823C24.3914 12.2406 24.3755 12.4859 24.6121 12.4743C24.6707 12.4714 24.7363 12.2175 24.762 12.0724C24.7802 11.97 24.7392 11.856 24.7199 11.748C24.6229 11.2045 24.5184 10.6621 24.4306 10.1171C24.4097 9.98716 24.4443 9.83706 24.6081 9.80844C24.7783 9.77872 24.8825 9.871 24.9153 10.042C25.0504 10.7469 25.1869 11.4516 25.3214 12.1567C25.3549 12.3326 25.3828 12.5095 25.4074 12.6518" fill="white"/>
<path id="Fill 8" fill-rule="evenodd" clip-rule="evenodd" d="M0.378906 12.6554C0.439917 12.3029 0.496596 11.9495 0.563038 11.598C0.657596 11.0976 0.759337 10.5985 0.858123 10.0989C0.862179 10.0786 0.867575 10.0585 0.872078 10.0383C0.906656 9.88319 0.998877 9.78511 1.16263 9.80365C1.34538 9.82428 1.37044 9.97619 1.35731 10.1169C1.33297 10.3774 1.29846 10.6379 1.24887 10.8946C1.18486 11.2258 1.08745 11.5511 1.03352 11.8837C1.00905 12.0348 1.04672 12.1985 1.07278 12.3537C1.08099 12.4027 1.14489 12.4801 1.17998 12.4784C1.23776 12.4755 1.31916 12.4317 1.34384 12.3821C1.40155 12.2661 1.42715 12.1346 1.47345 12.0124C1.63425 11.5878 1.76885 11.1502 1.9679 10.744C2.28082 10.1053 2.87144 9.87613 3.53833 9.77422C4.16022 9.67919 4.77957 9.5657 5.39745 9.4471C6.1106 9.31017 6.82214 9.16422 7.53189 9.01088C7.81463 8.94978 8.09277 8.86463 8.36926 8.77844C8.54896 8.72245 8.61846 8.57945 8.63458 8.39678C8.65878 8.12212 8.67356 7.84377 8.73179 7.57549C8.924 6.68982 9.55785 6.09354 10.4543 5.94749C10.816 5.88855 11.1407 6.00886 11.4176 6.23646C11.9827 6.70092 12.4166 7.2604 12.501 8.0074C12.5339 8.29881 12.5024 8.61612 12.4195 8.898C12.2394 9.51026 11.8177 9.95302 11.3023 10.3205C10.8563 10.6385 10.3547 10.7913 9.82709 10.8916C9.5088 10.9522 9.19633 11.06 8.87598 11.0889C8.37016 11.1347 7.85966 11.1511 7.35161 11.1448C6.82736 11.1383 6.30253 11.1022 5.78001 11.0563C5.22916 11.008 4.68199 10.9167 4.1309 10.8738C3.52279 10.8264 2.99535 11.0417 2.6011 11.5019C2.24208 11.921 1.97848 12.4048 1.75039 12.9107C1.66697 13.0958 1.50298 13.2718 1.33126 13.3848C0.927211 13.6507 0.457928 13.3869 0.403207 12.8867C0.394958 12.8117 0.402039 12.7349 0.402039 12.6589C0.394339 12.6577 0.386606 12.6566 0.378906 12.6554" fill="white"/>
<path id="Fill 10" fill-rule="evenodd" clip-rule="evenodd" d="M24.5347 15.9973C24.5485 16.6477 24.3827 17.2594 24.0667 17.8183C23.8554 18.192 23.5745 18.5265 23.3253 18.8789C22.9943 19.3469 22.8775 19.7233 23.286 20.227C23.4293 20.4038 23.5879 20.5731 23.702 20.7678C24.016 21.3036 23.9634 21.7301 23.5429 22.2501C23.3736 22.4594 23.1919 22.6589 23.0244 22.8697C22.6123 23.3887 22.4446 24.0038 22.3373 24.6414C22.2963 24.8853 22.241 25.1278 22.2149 25.3733C22.1304 26.166 22.0556 26.9597 21.9791 27.7531C21.9673 27.8768 21.9525 27.9998 21.793 28.0003C21.6341 28.0008 21.5989 27.8635 21.5986 27.7524C21.5978 27.4498 21.6183 27.147 21.636 26.8446C21.675 26.1785 21.7168 25.5126 21.7587 24.8467C21.7837 24.449 21.8176 24.0517 21.8356 23.6538C21.8504 23.3242 21.8352 22.9931 21.8552 22.664C21.9029 21.8798 21.9707 21.0967 22.0162 20.3124C22.0448 19.8193 22.0559 19.3248 22.0603 18.8308C22.0649 18.3147 22.0711 17.7974 22.042 17.2825C22.0082 16.6846 21.9571 16.0859 21.8747 15.493C21.8221 15.1142 21.7029 14.7442 21.6066 14.3721C21.495 13.941 21.3472 13.517 21.2698 13.0802C21.2163 12.7776 21.1851 12.4468 21.5162 12.2234C21.7824 12.0437 22.0335 12.0543 22.2886 12.2172C22.3923 12.2834 22.4898 12.366 22.5722 12.4572C22.9928 12.9224 23.4221 13.3809 23.8205 13.8645C24.3193 14.4701 24.5059 15.0757 24.5347 15.9973" fill="white"/>
<path id="Fill 12" fill-rule="evenodd" clip-rule="evenodd" d="M3.62046 26.0833C3.57236 25.1664 3.48711 24.2477 3.08067 23.4121C2.88814 23.0163 2.55959 22.6865 2.30138 22.3208C2.17455 22.1411 2.04572 21.9574 1.95613 21.7585C1.76121 21.3258 1.94101 20.9531 2.1947 20.6052C2.2883 20.4768 2.39908 20.3608 2.49526 20.2342C2.8548 19.7609 2.84148 19.3512 2.46372 18.8828C2.34272 18.7328 2.22145 18.5797 2.12582 18.4136C1.89394 18.0109 1.57778 17.6604 1.43432 17.2013C1.25555 16.6291 1.2191 16.0523 1.27798 15.4647C1.34966 14.7486 1.71079 14.1644 2.16744 13.6335C2.54088 13.1994 2.92272 12.771 3.32277 12.3612C3.65218 12.0238 4.00426 12.0114 4.34358 12.2787C4.53339 12.4283 4.60176 12.8571 4.51213 13.1653C4.33775 13.7649 4.14842 14.3629 4.02293 14.9732C3.91115 15.517 3.88158 16.0771 3.80783 16.629C3.67944 17.5899 3.68041 18.5559 3.72269 19.5196C3.76434 20.469 3.86487 21.4156 3.92485 22.3643C3.96433 22.9885 3.96968 23.6148 4.00502 24.2394C4.04161 24.8861 4.10038 25.5316 4.14107 26.1782C4.17175 26.6653 4.18924 27.1533 4.21247 27.641C4.21313 27.6547 4.21475 27.6693 4.2113 27.6823C4.17585 27.8158 4.19587 28.0075 3.99025 28.0001C3.79944 27.9932 3.81801 27.8217 3.80265 27.6848C3.75968 27.3013 3.71071 26.9185 3.66588 26.5352C3.64832 26.3849 3.63548 26.2339 3.62046 26.0833" fill="white"/>
<path id="Fill 14" fill-rule="evenodd" clip-rule="evenodd" d="M8.14978 1.98187C8.2981 1.59314 8.09671 1.25392 7.96654 0.90124C8.58026 1.10514 8.89858 1.6235 9.29483 2.03945C9.68916 2.45343 10.0226 2.92526 10.4095 3.40494C10.4768 3.20888 10.5456 3.00573 10.6166 2.80333C10.634 2.75383 10.6585 2.70686 10.6798 2.65873C10.7292 2.68861 10.7971 2.70669 10.8251 2.7503C11.0257 3.06253 11.2212 3.37815 11.412 3.6965C11.5253 3.88554 11.6402 4.07553 11.7304 4.27587C11.8428 4.52575 11.9349 4.78522 12.0273 5.04352C12.0946 5.23146 12.1528 5.42306 12.2052 5.61573C12.2194 5.66804 12.1981 5.73001 12.1931 5.78757C12.1299 5.77636 12.0497 5.78524 12.0073 5.74944C11.9365 5.68976 11.9004 5.59024 11.8317 5.52697C11.1614 4.90961 10.3222 4.77552 9.49128 5.15335C8.87772 5.43231 8.37222 5.85156 8.07256 6.46135C7.91066 6.7908 7.81822 7.15692 7.71847 7.51323C7.6498 7.75842 7.55396 7.8133 7.34293 7.66455C6.98849 7.41481 6.84532 7.07131 6.89221 6.64117C6.94222 6.1829 6.98578 5.72391 7.02811 5.26489C7.09672 4.52047 6.78303 3.92637 6.27986 3.41374C6.11908 3.24999 6.10636 3.13666 6.26754 2.97822C6.34616 2.90097 6.42289 2.82146 6.49657 2.73948C6.91159 2.27761 6.91708 1.88714 6.53537 1.33923C6.3356 1.05249 6.08523 0.797199 5.83503 0.550783C5.70572 0.423412 5.52227 0.35243 5.37237 0.243524C5.31303 0.200394 5.27835 0.123451 5.23242 0.061924C5.31341 0.0553465 5.40263 0.0232469 5.47404 0.0463024C5.97735 0.208513 6.42454 0.473086 6.86377 0.768457C7.3017 1.06294 7.65607 1.426 7.97408 1.83586C8.01195 1.88468 8.05353 1.93079 8.09568 1.97604C8.10244 1.98331 8.12131 1.9793 8.14978 1.98187" fill="white"/>
<path id="Fill 16" fill-rule="evenodd" clip-rule="evenodd" d="M15.4402 3.39658C15.4893 3.31709 15.5388 3.23781 15.5875 3.15811C15.8549 2.72089 16.1345 2.29669 16.5353 1.96063C16.7247 1.80186 16.8647 1.58574 17.0455 1.41505C17.2304 1.24052 17.4354 1.08644 17.6379 0.931549C17.678 0.900852 17.7467 0.907273 17.8022 0.896594C17.7914 0.951499 17.7947 1.01485 17.7676 1.06C17.5966 1.34449 17.5343 1.64116 17.6385 2.01829C17.8412 1.77611 18.0166 1.56758 18.1904 1.35774C18.2255 1.31537 18.2456 1.25631 18.2875 1.22465C18.9345 0.736549 19.5749 0.235432 20.3717 0.00338125C20.4241 -0.0118645 20.4927 0.0285504 20.5538 0.043075C20.5195 0.0968814 20.498 0.174621 20.449 0.200717C19.9661 0.45749 19.5986 0.840247 19.2837 1.2732C18.8653 1.84859 18.8608 2.26366 19.3144 2.7599C19.4283 2.88455 19.5962 3.01595 19.6111 3.15759C19.6236 3.27685 19.4624 3.4268 19.3564 3.54368C18.7669 4.1942 18.6833 4.97396 18.7688 5.7963C18.7994 6.09133 18.8546 6.38374 18.8909 6.67832C18.9435 7.10585 18.7684 7.43398 18.4226 7.674C18.2321 7.8062 18.1113 7.75723 18.0752 7.5283C17.9639 6.8211 17.6655 6.20055 17.1455 5.71592C16.6101 5.21697 15.9653 4.87751 15.214 4.93866C14.674 4.98258 14.1639 5.18235 13.8275 5.66956C13.7832 5.73381 13.6696 5.7505 13.5882 5.78923C13.5858 5.70795 13.5648 5.6219 13.5845 5.5464C13.6385 5.33948 13.7059 5.13579 13.7743 4.93293C14.0343 4.16213 14.4391 3.46622 14.8967 2.79887C14.9398 2.7359 15.0144 2.69432 15.0744 2.64281C15.1051 2.71341 15.1385 2.78301 15.166 2.85488C15.2342 3.03343 15.2997 3.21305 15.3663 3.39222C15.3909 3.39366 15.4156 3.39514 15.4402 3.39658" fill="white"/>
<path id="Fill 18" fill-rule="evenodd" clip-rule="evenodd" d="M14.5815 16.4126C14.7318 16.2305 14.8922 16.0902 14.98 15.9143C15.0645 15.7447 15.0741 15.5383 15.1302 15.2873C14.984 15.3358 14.9082 15.3567 14.8359 15.3857C14.536 15.5062 14.2295 15.5193 13.9179 15.4435C13.8001 15.4149 13.7308 15.3413 13.8342 15.2404C14.1767 14.9066 14.1205 14.5233 13.9962 14.1273C13.955 13.9961 13.9095 13.8662 13.867 13.7354C13.7139 13.2645 13.7504 12.797 13.8597 12.3207C13.9623 11.8733 14.3483 11.726 14.7737 11.8128C15.3091 11.9219 15.8449 12.0744 16.3856 12.0991C16.8819 12.1218 17.3903 12.0271 17.883 11.9313C18.2098 11.8677 18.2972 11.8868 18.3601 12.2038C18.3873 12.3411 18.4501 12.476 18.5194 12.5995C18.6118 12.7642 18.6059 12.9202 18.4595 13.0247C18.0018 13.3515 17.8217 13.859 17.5714 14.3205C17.2975 14.8257 16.941 15.255 16.458 15.5774C16.3432 15.654 16.2331 15.739 16.1285 15.8289C15.7502 16.1542 15.285 16.2909 14.8203 16.4291C14.7816 16.4406 14.7375 16.4364 14.696 16.4352C14.67 16.4344 14.6442 16.4254 14.5815 16.4126" fill="white"/>
<path id="Fill 20" fill-rule="evenodd" clip-rule="evenodd" d="M10.7278 15.313C10.6621 15.7958 10.8594 16.1314 11.235 16.3936C11.2135 16.4206 11.1919 16.4477 11.1704 16.4747C10.9789 16.4285 10.7839 16.3933 10.5966 16.334C9.94192 16.1269 9.43222 15.6895 8.92893 15.2497C8.44944 14.8307 8.20416 14.2506 7.90621 13.707C7.81585 13.542 7.69066 13.3951 7.57276 13.2469C7.51759 13.1775 7.44078 13.1257 7.37549 13.0641C7.22444 12.9216 7.20493 12.7684 7.3056 12.58C7.37803 12.4444 7.42408 12.2911 7.46015 12.1405C7.51358 11.9172 7.60246 11.86 7.83259 11.9109C8.12773 11.9762 8.4242 12.0367 8.72185 12.0894C9.18529 12.1715 9.6451 12.1086 10.1006 12.0256C10.4121 11.9688 10.718 11.8813 11.028 11.8152C11.4179 11.732 11.8087 11.8329 11.9348 12.3294C12.0883 12.9338 12.0296 13.5099 11.8206 14.0906C11.7414 14.3109 11.712 14.5619 11.7213 14.7965C11.727 14.9387 11.8342 15.0878 11.9247 15.2128C12.0373 15.3681 12.0374 15.4423 11.847 15.4552C11.5778 15.4732 11.3043 15.4437 11.0339 15.4197C10.9417 15.4115 10.8535 15.3584 10.7278 15.313" fill="white"/>
</g>
</g>
</g>
</svg>
